<?xml version="1.0" encoding="utf-8"?>
<!-- Generator: Adobe Illustrator 26.3.1, SVG Export Plug-In . SVG Version: 6.00 Build 0)  -->
<svg version="1.1" id="Capa_1" xmlns="http://www.w3.org/2000/svg" xmlns:xlink="http://www.w3.org/1999/xlink" x="0px" y="0px"
	 viewBox="0 0 512 512" style="enable-background:new 0 0 512 512;" xml:space="preserve">
<style type="text/css">
	.st0{fill:#F9BC60;}
	.st1{fill:#FEFEFE;}
</style>
<path class="st0" d="M275,505.9c-1,0-2,0-3,0c-0.6-0.7-1.5-0.5-2.3-0.5c-0.6,0-1.2,0-1.8,0c-1,0.1-2.1-0.3-2.9,0.5c-6,0-12,0-18,0
	c-0.8-0.9-1.9-0.4-2.9-0.5c-0.6,0-1.2,0-1.8,0c-0.8,0.1-1.6-0.2-2.3,0.5c-1.7,0-3.3,0-5,0c-10.8-1.3-21.7-2-32.4-4.4
	c-41.9-9.4-79.1-28.1-111.6-56.2c-29.6-25.6-51.7-56.7-66.9-92.6c-10-23.7-16.8-48.4-17.5-74.3c0-0.5-0.2-1-0.5-1.3c0-2,0-4,0-6
	c0.6-0.7,0.6-1.3,0-2c0-1.3,0-2.7,0-4c0.8-2,0.8-4,0-6c0-1.7,0-3.3,0-5c0.8-2,0.8-4,0-6c0-1,0-2,0-3c0.8-0.8,0.4-1.9,0.5-2.8
	c0-0.8,0.2-1.6-0.5-2.2c0-1.7,0-3.3,0-5c1.2-14.9,3.2-29.7,7.2-44.1c8.9-32.5,23.6-62.1,44.2-88.7c24.9-32.2,56-56.7,92.7-74
	c22.7-10.7,46.6-17.8,71.6-20.9c4.4-0.5,8.9-0.2,13.3-1.2c1,0,2,0,3,0c0.7,0.7,1.5,0.5,2.3,0.5s1.7,0,2.5,0c0.6,0,1.2,0,1.9,0
	c0.8-0.1,1.7,0.2,2.3-0.5c6,0,12,0,18,0c0.6,0.7,1.4,0.5,2.2,0.5c0.6,0,1.2,0,1.8,0c0.6,0,1.2,0,1.8,0c0.8,0,1.6,0.2,2.2-0.5
	c0.7,0,1.3,0,2,0c8.7,1.2,17.5,1,26.1,2.7c42.2,8,80,25.4,113.4,52.4c30,24.3,52.9,54.2,69.3,89c10.7,22.7,17.8,46.6,20.9,71.6
	c0.6,4.7,0.2,9.6,1.2,14.3c0,1.3,0,2.7,0,4c-0.7,0.6-0.5,1.5-0.5,2.3s0,1.6,0,2.4c0.1,0.8-0.2,1.6,0.5,2.3c0,3.7,0,7.3,0,11
	c-0.8,2-0.8,4,0,6c0,1.7,0,3.3,0,5c-0.7,1-0.7,2,0,3c0,1.7,0,3.3,0,5c-1.3,9.8-1.7,19.7-3.8,29.5c-9.1,43.3-28.1,81.6-57.2,114.8
	c-37.8,43-84.9,69.8-140.8,81.4c-8.3,1.7-16.8,2.3-25.2,2.7C277.6,505.5,276.2,505,275,505.9z"/>
<path class="st1" d="M228.9,244.5c26,10.3,32.9,32.4,31,55c-1.9,23.7-17.4,42-41.6,49.4c-11.4,3.5-23.1,4.6-35,4.7
	c-29.8,0.1-59.6,0-89.4,0.1c-3.7,0-5-0.7-5-4.8c0.1-64.8,0.1-129.6,0-194.4c0-4,1.3-4.5,4.7-4.5c31.6,0.1,63.3,0.1,94.9,0.1
	c11.4,0,22.5,1.7,33.2,6c18.3,7.3,30.1,20,32.2,40.1C256.1,217.2,249.3,234.1,228.9,244.5z"/>
<path class="st1" d="M369.3,291.6c-16.5,0-33,0-49.5,0c-2.4,0-4.1-0.2-3.8,3.3c2.2,25.3,25.8,40.7,49.8,32.3
	c6-2.1,10.9-5.8,14.2-11.2c1.6-2.6,3.5-3.4,6.5-3.4c10.2,0.2,20.3,0.3,30.5,0c4.2-0.1,4.7,1.4,3.9,4.9c-2.8,12.7-9.8,22.6-20.5,29.6
	c-26,17.2-53.9,19.7-82.8,8.6c-15.7-6-26.4-17.8-32.5-33.3c-10.3-26-10.8-52.3-0.1-78.3c13.1-31.8,41.7-46.7,75.7-42.3
	c32.4,4.1,52.5,24.4,59.2,57.9c1.9,9.3,3,18.7,3.2,28.2c0.1,3.1-0.8,3.9-3.9,3.9C402.6,291.5,385.9,291.6,369.3,291.6z"/>
<path class="st1" d="M346,184c-13,0-25.9-0.1-38.9,0.1c-3.4,0.1-4.2-1-4.1-4.2c0.2-6,0.2-12,0-18c-0.1-2.5,0.6-3.5,3.3-3.5
	c26.4,0.1,52.9,0.1,79.3,0c2.7,0,3.3,1,3.3,3.5c-0.2,6-0.2,12,0,18c0.1,3.2-0.7,4.2-4.1,4.2C371.9,183.8,359,184,346,184z"/>
<g>
	<path class="st0" d="M162,264c8.9,0.5,19.8-0.9,30.5,0.9c14.3,2.5,22.2,10.2,23.1,22.7c1,13.8-6.4,24.3-19.9,28.6
		c-5.5,1.7-11.1,2-16.8,2.1c-15,0.1-30-0.1-45,0.1c-3.3,0-4.1-0.8-4.1-4.1c0.2-15.5,0.2-31,0-46.5c-0.1-3.6,1.3-4,4.3-3.9
		C142.9,264.1,151.5,264,162,264z"/>
	<path class="st0" d="M159.4,229.6c-8.5,0-17-0.1-25.4,0.1c-2.9,0.1-4-0.5-4-3.8c0.2-12.5,0.1-24.9,0.1-37.4c0-2-0.1-3.5,2.7-3.4
		c18.8,0.5,37.6-0.8,56.3,0.9c3.2,0.3,6.2,1,9.2,2.1c7.7,2.8,12.4,8.1,13,16.5c0.6,8.9-2.1,16-10.2,20.5c-6.4,3.6-13.5,4.4-20.7,4.5
		C173.3,229.7,166.4,229.6,159.4,229.6z"/>
	<path class="st0" d="M350.5,267.1c-9.6,0-19.3-0.1-28.9,0.1c-3,0.1-4.1-0.5-3.5-3.8c2.9-16.4,16.4-28.2,32.5-28.2
		c16.8,0,30.4,12.1,33,28.8c0.5,3.3-1,3.1-3.2,3.1C370.4,267.1,360.4,267.1,350.5,267.1z"/>
</g>
</svg>
