<?xml version="1.0" encoding="utf-8"?>
<!-- Generator: Adobe Illustrator 26.3.1, SVG Export Plug-In . SVG Version: 6.00 Build 0)  -->
<svg version="1.1" id="Capa_1" xmlns="http://www.w3.org/2000/svg" xmlns:xlink="http://www.w3.org/1999/xlink" x="0px" y="0px"
	 viewBox="0 0 366 433.3" style="enable-background:new 0 0 366 433.3;" xml:space="preserve">
<style type="text/css">
	.st0{fill:#020202;}
</style>
<g id="Capa_2_00000131330741734110407340000003795709637336110266_">
	<g>
		<path class="st0" d="M138.7,384c-8.8-2.9-11.8-9.1-11.7-18c0.2-23.2,0-46.4,0.1-69.6c0-2.6-0.7-4-3.1-5.3
			c-35.1-18.7-57.3-47.6-66-86.2c-7.3-32.4-2.1-63.4,14.7-92.1c16.5-28.1,40.5-47.4,71.5-57.1c38.1-11.9,74.5-7,108.2,14.4
			c23.7,15,40.6,36,50.4,62.3c11.3,30.3,11.3,60.9-0.4,91.2c-11.5,30.2-32.1,52.8-60.8,67.8c-1.9,1-2.5,2.2-2.5,4.3
			c0.1,23.4-0.1,46.8,0.1,70.2c0.1,8.9-3,15.2-11.7,18C197.9,384,168.3,384,138.7,384z M226.3,297c0-1.9,0.1-3.4,0-4.9
			c-0.5-5.1,1.5-8.2,6.3-10.4c24.6-11.7,42.9-29.9,54.6-54.4c12.5-26.2,14.8-53.5,6.8-81.4c-8.2-28.4-24.9-50.7-50.2-66.3
			c-25-15.5-52.3-20.7-81.1-15.5c-28.7,5.2-52.5,19.3-70.4,42.6c-21.5,28-28.9,59.5-22.1,94.1c4.4,22.5,15,41.8,31.1,58.1
			c9.7,9.9,21,17.6,33.5,23.4c3.6,1.7,5.3,4.3,5.1,8.3c-0.1,2.1,0,4.2,0,6.3c3.6,0,6.7,0,10,0c0-1.6,0-2.8,0-4.1
			c0-40.7,0-81.4,0-122.2c0-1.7-0.1-3.7,0.7-5.1c8.9-17.6,17.8-35.1,27-52.5c2.4-4.6,8-4.5,11-0.2c0.6,0.9,1.1,1.9,1.6,2.8
			c8.1,15.7,16.2,31.3,24.1,47c1.3,2.5,2,5.6,2,8.4c0.1,40.7,0.1,81.4,0.1,122.2c0,1.3,0,2.5,0,3.8C219.9,297,222.9,297,226.3,297z
			 M203.4,180c-4,2.6-7.5,4.9-11.1,7c-2,1.2-2.8,2.5-2.7,4.9c0.1,33.8,0.1,67.7,0.1,101.5c0,1.1,0,2.3,0,3.5c4.9,0,9.3,0,13.8,0
			C203.4,258,203.4,219.4,203.4,180z M176.4,297.2c0.1-0.6,0.2-1,0.2-1.5c0-34.9,0-69.9,0-104.8c0-0.8-0.2-1.9-0.8-2.3
			c-4.2-2.9-8.4-5.6-12.9-8.6c0,39.3,0,78.2,0,117.1C167.5,297.2,171.8,297.2,176.4,297.2z M140.1,321.5c28.9,0,57.4,0,86,0
			c0-3.9,0-7.6,0-11.4c-28.7,0-57.3,0-86,0C140.1,313.9,140.1,317.6,140.1,321.5z M140.1,346c28.9,0,57.4,0,86,0c0-3.9,0-7.5,0-11.4
			c-28.7,0-57.3,0-86,0C140.1,338.4,140.1,342.1,140.1,346z M226.3,359.4c-28.8,0-57.5,0-86.5,0c0,2.5,0,4.9,0,7.3
			c0,4.5,0,4.5,4.5,4.5c23,0,46.1,0,69.1,0c3.3,0,6.5-0.1,9.8,0c2.2,0,3.2-0.9,3.1-3.1C226.2,365.3,226.3,362.5,226.3,359.4z
			 M183.1,129.8c-6.4,12.3-12.4,24-18.5,35.9c6,4,11.7,7.8,17.5,11.6c0.5,0.3,1.5,0.3,2,0c5.8-3.8,11.5-7.6,17.5-11.6
			C195.5,153.9,189.5,142.2,183.1,129.8z"/>
	</g>
</g>
</svg>
