<?xml version="1.0" encoding="utf-8"?>
<!-- Generator: Adobe Illustrator 26.3.1, SVG Export Plug-In . SVG Version: 6.00 Build 0)  -->
<svg version="1.1" id="Capa_1" xmlns="http://www.w3.org/2000/svg" xmlns:xlink="http://www.w3.org/1999/xlink" x="0px" y="0px"
	 viewBox="0 0 512 512" style="enable-background:new 0 0 512 512;" xml:space="preserve">
<style type="text/css">
	.st0{fill:#FBFBFB;}
	.st1{fill:#FCFCFC;}
	.st2{fill:#F9BC60;}
</style>
<path class="st0" d="M256,109.1c21.2,0.1,42.3-0.2,63.4,1c26.2,1.6,49.2,9.7,65.7,31.5c11.4,15,15.9,32.5,16.7,50.9
	c1.8,42.5,1.9,84.9,0,127.4c-1.4,30-12.6,54.9-39.6,70.7c-12.6,7.4-26.6,10.6-41,11.3c-43.5,1.9-86.9,2.1-130.4,0
	c-27.4-1.4-50.8-11.4-66.7-35.2c-9.3-14-13.2-29.8-13.9-46.2c-1.8-43-2-85.9,0-128.9c1.3-27.6,11.2-51.2,35.1-67.2
	c14.2-9.5,30.4-13.1,47.2-14.1C213.7,108.8,234.8,109.2,256,109.1z M256,376.3c11.2,0,22.3,0.1,33.5,0c11.1-0.2,22.3-0.3,33.4-1.2
	c30.5-2.5,50.2-21.6,52-52.2c2.5-44.6,2.5-89.2,0-133.8c-1.7-30.6-21.4-50.2-52-51.9c-44.6-2.5-89.2-2.5-133.8,0
	c-30.6,1.7-50.2,21.4-52,52c-2.5,44.6-2.5,89.2,0,133.8c1.7,30.6,21.5,49.7,52,52.1C211.4,376.8,233.7,375.9,256,376.3z"/>
<path class="st1" d="M256.1,331.4c-41.7,0.1-75.6-33.7-75.6-75.4c0-41.8,33.8-75.5,75.5-75.4c41.6,0.1,75.1,33.5,75.3,75.1
	C331.6,297.4,297.9,331.3,256.1,331.4z M255.9,207c-26.9,0.1-48.8,22.1-48.8,49s22,48.9,48.9,49c27.1,0,49.2-22.1,49.1-49.2
	C304.8,228.8,282.8,207,255.9,207z"/>
<path class="st0" d="M352,177.6c0,9.9-7.9,17.6-17.9,17.5c-9.7-0.1-17.3-7.9-17.2-17.6c0-9.9,7.9-17.6,17.9-17.5
	C344.4,160.1,352,167.9,352,177.6z"/>
<g>
	<path class="st2" d="M235,0.1c13.3,0,26.7,0,40,0c0.3,1.1,1.2,0.9,2,0.9c9.8,0.6,19.5,2.1,29.1,4c105.5,20.7,187.3,106.9,203,213.6
		c0.9,5.8,0.5,11.8,2.7,17.4c0,13.7,0,27.3,0,41c-2.1,4.2-1.6,8.9-2.2,13.4c-7.3,50.9-27.5,96-61.6,134.4
		c-41.2,46.5-92.7,74.7-154.3,84.3c-6.3,1-12.7,0.7-18.8,2.8c-13.3,0-26.7,0-40,0c-0.6-1.6-1.9-0.9-3-1.1c-12.1-1.3-24.1-3.1-35.9-6
		C94.4,480.1,18.4,396.9,2.8,293.3C2,287.9,2.4,282.2,0.1,277c0-14,0-28,0-42c1.6-0.6,0.9-1.9,1-3c1.2-11.4,2.9-22.8,5.6-33.9
		C31.5,94.6,113.7,19,218.7,2.8C224.1,2,229.8,2.4,235,0.1z M256,109.1c-21.2,0.1-42.3-0.3-63.4,1c-16.8,1-33,4.6-47.2,14.1
		c-23.9,16-33.8,39.6-35.1,67.2c-2,42.9-1.9,85.9,0,128.9c0.7,16.5,4.6,32.3,13.9,46.2c15.8,23.7,39.3,33.8,66.7,35.2
		c43.4,2.1,86.9,1.9,130.4,0c14.4-0.6,28.4-3.9,41-11.3c27.1-15.7,38.3-40.7,39.6-70.7c2-42.4,1.8-84.9,0-127.4
		c-0.8-18.4-5.3-35.8-16.7-50.9c-16.5-21.7-39.5-29.9-65.7-31.5C298.3,108.8,277.2,109.1,256,109.1z"/>
	<path class="st2" d="M256,376.3c-22.3-0.4-44.6,0.5-66.9-1.2c-30.6-2.4-50.3-21.5-52-52.1c-2.5-44.6-2.5-89.2,0-133.8
		c1.7-30.6,21.4-50.3,52-52c44.6-2.5,89.2-2.5,133.8,0c30.6,1.7,50.3,21.4,52,51.9c2.5,44.6,2.5,89.2,0,133.8
		c-1.7,30.6-21.5,49.8-52,52.2c-11.1,0.9-22.3,1-33.4,1.2C278.3,376.4,267.2,376.3,256,376.3z M256.1,331.4
		c41.8-0.1,75.5-34,75.3-75.7c-0.2-41.7-33.7-75.1-75.3-75.1c-41.7-0.1-75.5,33.7-75.5,75.4C180.6,297.7,214.4,331.5,256.1,331.4z
		 M352,177.6c0-9.7-7.7-17.5-17.3-17.6c-9.9-0.1-17.8,7.6-17.9,17.5c0,9.7,7.6,17.5,17.2,17.6C344.1,195.2,352,187.5,352,177.6z"/>
	<path class="st2" d="M255.9,207c27-0.1,49,21.8,49.1,48.7c0.1,27.2-21.9,49.3-49.1,49.2c-26.9,0-48.9-22-48.9-49
		C207,229.1,228.9,207.1,255.9,207z"/>
</g>
</svg>
