<?xml version="1.0" encoding="utf-8"?>
<!-- Generator: Adobe Illustrator 26.3.1, SVG Export Plug-In . SVG Version: 6.00 Build 0)  -->
<svg version="1.1" id="Capa_1" xmlns="http://www.w3.org/2000/svg" xmlns:xlink="http://www.w3.org/1999/xlink" x="0px" y="0px"
	 viewBox="0 0 512 512" style="enable-background:new 0 0 512 512;" xml:space="preserve">
<style type="text/css">
	.st0{fill:#F9BC60;}
	.st1{fill:#FDFDFD;}
	.st2{fill:#FBFBFB;}
	.st3{fill:#FCFCFC;}
</style>
<path class="st0" d="M275,511.9c-13.3,0-26.7,0-40,0c-0.6-1.6-1.9-0.9-3-1.1c-12.1-1.3-24.1-3.1-35.9-6
	C94.4,480.1,18.4,396.9,2.8,293.3C2,287.9,2.4,282.2,0.1,277c0-14,0-28,0-42c1.6-0.6,0.9-1.9,1-3c1.2-11.4,2.9-22.8,5.6-33.9
	C31.5,94.7,113.7,19,218.7,2.8c5.4-0.8,11.1-0.4,16.3-2.7c13.3,0,26.7,0,40,0c0.3,1.1,1.2,0.9,2,0.9c9.8,0.6,19.5,2.1,29.1,4
	c105.5,20.8,187.3,106.8,203,213.6c0.9,5.8,0.5,11.8,2.7,17.4c0,13.3,0,26.7,0,40c-1.9,4.6-1.6,9.6-2.2,14.4
	c-7.3,50.9-27.5,96-61.6,134.4c-41.2,46.5-92.7,74.7-154.3,84.3C287.6,510.1,281.1,509.8,275,511.9z M278.4,224.1
	c0-7.1-0.1-14.2,0-21.3c0.1-2.6-0.8-3.5-3.4-3.4c-18.5,0.1-37,0.1-55.5,0c-3,0-3.7,1-3.5,3.8c0.3,4.3,0.2,8.7,0.2,13
	c-0.1,55.3-0.1,110.6-0.3,165.9c0,4.2,1,5.2,5.2,5.1c17.7-0.2,35.3-0.2,53,0c3.4,0,4.4-0.7,4.4-4.3c-0.2-17.5-0.1-35-0.1-52.5
	c0.1-18,0.2-36,0.3-54c0.1-8.4,3.9-15.5,9.4-21.4c9.1-9.8,20.5-12.6,33.3-9.5c11.8,2.9,17.6,11.7,20.5,22.9
	c1.7,6.5,2.1,13.1,2.1,19.8c0,31.3,0.1,62.6-0.1,94c0,4.3,1.2,5.1,5.2,5c17.5-0.2,35-0.2,52.5,0c4,0.1,4.8-1.1,4.8-4.9
	c-0.2-33.5-0.1-67-0.1-100.4c0-9.5-0.6-18.9-2.4-28.3c-8.9-47.2-55.8-72.1-98.4-52.4C294.5,206.1,286.2,214.4,278.4,224.1z
	 M181.7,293.5c0-29.8-0.1-59.6,0.1-89.4c0-3.5-0.6-4.9-4.6-4.9c-18,0.2-36,0.2-53.9,0c-3.3,0-4.1,0.9-4.1,4.2
	c0.1,59.8,0.1,119.5,0,179.3c0,3.7,1.3,4.3,4.5,4.2c17.8-0.1,35.6-0.2,53.4,0c3.7,0,4.7-0.8,4.7-4.6
	C181.6,352.8,181.7,323.2,181.7,293.5z M115.7,141.5c0,19,14.5,32.5,34.8,32.4c20.4-0.1,35.3-13.6,35.3-32.2
	c0-18.9-14.5-32.6-34.7-32.7C130.3,109,115.7,122.4,115.7,141.5z"/>
<path class="st1" d="M278.4,224.1c7.8-9.7,16.1-17.9,27.1-23.1c42.6-19.8,89.5,5.2,98.4,52.4c1.8,9.4,2.4,18.8,2.4,28.3
	c0,33.5-0.1,67,0.1,100.4c0,3.8-0.8,5-4.8,4.9c-17.5-0.2-35-0.2-52.5,0c-4,0.1-5.3-0.7-5.2-5c0.2-31.3,0.1-62.6,0.1-94
	c0-6.7-0.4-13.3-2.1-19.8c-2.9-11.1-8.7-20-20.5-22.9c-12.7-3.1-24.2-0.3-33.3,9.5c-5.6,6-9.3,13-9.4,21.4c-0.2,18-0.3,36-0.3,54
	c-0.1,17.5-0.1,35,0.1,52.5c0,3.6-1,4.3-4.4,4.3c-17.7-0.2-35.3-0.2-53,0c-4.1,0.1-5.2-0.9-5.2-5.1c0.2-55.3,0.2-110.6,0.3-165.9
	c0-4.3,0-8.7-0.2-13c-0.2-2.7,0.5-3.8,3.5-3.8c18.5,0.1,37,0.1,55.5,0c2.6,0,3.5,0.8,3.4,3.4C278.3,209.8,278.4,217,278.4,224.1z"/>
<path class="st2" d="M181.7,293.5c0,29.6-0.1,59.3,0.1,88.9c0,3.8-1,4.7-4.7,4.6c-17.8-0.2-35.6-0.2-53.4,0c-3.3,0-4.5-0.5-4.5-4.2
	c0.1-59.8,0.1-119.5,0-179.3c0-3.3,0.8-4.2,4.1-4.2c18,0.2,36,0.2,53.9,0c4-0.1,4.6,1.4,4.6,4.9
	C181.7,233.9,181.7,263.7,181.7,293.5z"/>
<path class="st3" d="M115.7,141.5c0-19.1,14.6-32.4,35.4-32.4c20.2,0,34.7,13.7,34.7,32.7c0,18.6-14.9,32.1-35.3,32.2
	C130.2,174,115.7,160.4,115.7,141.5z"/>
</svg>
