<?xml version="1.0" encoding="utf-8"?>
<!-- Generator: Adobe Illustrator 26.3.1, SVG Export Plug-In . SVG Version: 6.00 Build 0)  -->
<svg version="1.1" id="Capa_1" xmlns="http://www.w3.org/2000/svg" xmlns:xlink="http://www.w3.org/1999/xlink" x="0px" y="0px"
	 viewBox="0 0 842 433.3" style="enable-background:new 0 0 842 433.3;" xml:space="preserve">
<style type="text/css">
	.st0{display:none;}
	.st1{display:inline;fill:#FBFBFB;}
	.st2{display:inline;fill:#FCFCFC;}
	.st3{display:inline;}
	.st4{fill:#F9BC60;}
</style>
<g id="Capa_1_00000066512105375520232130000015727350109554620592_" class="st0">
	<path class="st1" d="M167.6,109.1c21.2,0.1,42.3-0.2,63.4,1c26.2,1.6,49.2,9.7,65.7,31.5c11.4,15,15.9,32.5,16.7,50.9
		c1.8,42.5,1.9,84.9,0,127.4c-1.4,30-12.6,54.9-39.6,70.7c-12.6,7.4-26.6,10.6-41,11.3c-43.5,1.9-86.9,2.1-130.4,0
		c-27.4-1.4-50.8-11.4-66.7-35.2c-9.3-14-13.2-29.8-13.9-46.2c-1.8-43-2-85.9,0-128.9c1.3-27.6,11.2-51.2,35.1-67.2
		c14.2-9.5,30.4-13.1,47.2-14.1C125.3,108.8,146.4,109.2,167.6,109.1z M167.6,376.3c11.2,0,22.3,0.1,33.5,0
		c11.1-0.2,22.3-0.3,33.4-1.2c30.5-2.5,50.2-21.6,52-52.2c2.5-44.6,2.5-89.2,0-133.8c-1.7-30.6-21.4-50.2-52-51.9
		c-44.6-2.5-89.2-2.5-133.8,0c-30.6,1.7-50.2,21.4-52,52c-2.5,44.6-2.5,89.2,0,133.8c1.7,30.6,21.5,49.7,52,52.1
		C123,376.8,145.3,375.9,167.6,376.3z"/>
	<path class="st2" d="M167.7,331.4c-41.7,0.1-75.6-33.7-75.6-75.4c0-41.8,33.8-75.5,75.5-75.4c41.6,0.1,75.1,33.5,75.3,75.1
		C243.2,297.4,209.5,331.3,167.7,331.4z M167.5,207c-26.9,0.1-48.8,22.1-48.8,49s22,48.9,48.9,49c27.1,0,49.2-22.1,49.1-49.2
		C216.4,228.8,194.4,207,167.5,207z"/>
	<path class="st1" d="M263.6,177.6c0,9.9-7.9,17.6-17.9,17.5c-9.7-0.1-17.3-7.9-17.2-17.6c0-9.9,7.9-17.6,17.9-17.5
		C256,160.1,263.6,167.9,263.6,177.6z"/>
	<g class="st3">
		<path class="st4" d="M146.6,0.1c13.3,0,26.7,0,40,0c0.3,1.1,1.2,0.9,2,0.9c9.8,0.6,19.5,2.1,29.1,4
			c105.5,20.7,187.3,106.9,203,213.6c0.9,5.8,0.5,11.8,2.7,17.4c0,13.7,0,27.3,0,41c-2.1,4.2-1.6,8.9-2.2,13.4
			c-7.3,50.9-27.5,96-61.6,134.4c-41.2,46.5-92.7,74.7-154.3,84.3c-6.3,1-12.7,0.7-18.8,2.8c-13.3,0-26.7,0-40,0
			c-0.6-1.6-1.9-0.9-3-1.1c-12.1-1.3-24.1-3.1-35.9-6C6,480.1-70,396.9-85.6,293.3c-0.8-5.4-0.4-11.1-2.7-16.3c0-14,0-28,0-42
			c1.6-0.6,0.9-1.9,1-3c1.2-11.4,2.9-22.8,5.6-33.9C-56.9,94.6,25.3,19,130.3,2.8C135.7,2,141.4,2.4,146.6,0.1z M167.6,109.1
			c-21.2,0.1-42.3-0.3-63.4,1c-16.8,1-33,4.6-47.2,14.1c-23.9,16-33.8,39.6-35.1,67.2c-2,42.9-1.9,85.9,0,128.9
			c0.7,16.5,4.6,32.3,13.9,46.2c15.8,23.7,39.3,33.8,66.7,35.2c43.4,2.1,86.9,1.9,130.4,0c14.4-0.6,28.4-3.9,41-11.3
			c27.1-15.7,38.3-40.7,39.6-70.7c2-42.4,1.8-84.9,0-127.4c-0.8-18.4-5.3-35.8-16.7-50.9c-16.5-21.7-39.5-29.9-65.7-31.5
			C209.9,108.8,188.8,109.1,167.6,109.1z"/>
		<path class="st4" d="M167.6,376.3c-22.3-0.4-44.6,0.5-66.9-1.2c-30.6-2.4-50.3-21.5-52-52.1c-2.5-44.6-2.5-89.2,0-133.8
			c1.7-30.6,21.4-50.3,52-52c44.6-2.5,89.2-2.5,133.8,0c30.6,1.7,50.3,21.4,52,51.9c2.5,44.6,2.5,89.2,0,133.8
			c-1.7,30.6-21.5,49.8-52,52.2c-11.1,0.9-22.3,1-33.4,1.2C189.9,376.4,178.8,376.3,167.6,376.3z M167.7,331.4
			c41.8-0.1,75.5-34,75.3-75.7s-33.7-75.1-75.3-75.1c-41.7-0.1-75.5,33.7-75.5,75.4S126,331.5,167.7,331.4z M263.6,177.6
			c0-9.7-7.7-17.5-17.3-17.6c-9.9-0.1-17.8,7.6-17.9,17.5c0,9.7,7.6,17.5,17.2,17.6C255.7,195.2,263.6,187.5,263.6,177.6z"/>
		<path class="st4" d="M167.5,207c27-0.1,49,21.8,49.1,48.7c0.1,27.2-21.9,49.3-49.1,49.2c-26.9,0-48.9-22-48.9-49
			C118.6,229.1,140.5,207.1,167.5,207z"/>
	</g>
</g>
<g>
	<path class="st4" d="M122.8,423.6c-8.8-2.9-11.8-9.1-11.7-18c0.2-23.2,0-46.4,0.1-69.6c0-2.6-0.7-4-3.1-5.3
		c-35.1-18.7-57.3-47.6-66-86.2c-7.3-32.4-2.1-63.4,14.7-92.1c16.5-28.1,40.5-47.4,71.5-57.1c38.1-11.9,74.5-7,108.2,14.4
		c23.7,15,40.6,36,50.4,62.3c11.3,30.3,11.3,60.9-0.4,91.2C275,293.4,254.4,316,225.7,331c-1.9,1-2.5,2.2-2.5,4.3
		c0.1,23.4-0.1,46.8,0.1,70.2c0.1,8.9-3,15.2-11.7,18C182,423.6,152.4,423.6,122.8,423.6z M210.4,336.6c0-1.9,0.1-3.4,0-4.9
		c-0.5-5.1,1.5-8.2,6.3-10.4c24.6-11.7,42.9-29.9,54.6-54.4c12.5-26.2,14.8-53.5,6.8-81.4c-8.2-28.4-24.9-50.7-50.2-66.3
		c-25-15.5-52.3-20.7-81.1-15.5c-28.7,5.2-52.5,19.3-70.4,42.6c-21.5,28-28.9,59.5-22.1,94.1c4.4,22.5,15,41.8,31.1,58.1
		c9.7,9.9,21,17.6,33.5,23.4c3.6,1.7,5.3,4.3,5.1,8.3c-0.1,2.1,0,4.2,0,6.3c3.6,0,6.7,0,10,0c0-1.6,0-2.8,0-4.1
		c0-40.7,0-81.4,0-122.2c0-1.7-0.1-3.7,0.7-5.1c8.9-17.6,17.8-35.1,27-52.5c2.4-4.6,8-4.5,11-0.2c0.6,0.9,1.1,1.9,1.6,2.8
		c8.1,15.7,16.2,31.3,24.1,47c1.3,2.5,2,5.6,2,8.4c0.1,40.7,0.1,81.4,0.1,122.2c0,1.3,0,2.5,0,3.8C204,336.6,207,336.6,210.4,336.6z
		 M187.5,219.6c-4,2.6-7.5,4.9-11.1,7c-2,1.2-2.8,2.5-2.7,4.9c0.1,33.8,0.1,67.7,0.1,101.5c0,1.1,0,2.3,0,3.5c4.9,0,9.3,0,13.8,0
		C187.5,297.6,187.5,259,187.5,219.6z M160.5,336.8c0.1-0.6,0.2-1,0.2-1.5c0-34.9,0-69.9,0-104.8c0-0.8-0.2-1.9-0.8-2.3
		c-4.2-2.9-8.4-5.6-12.9-8.6c0,39.3,0,78.2,0,117.1C151.6,336.8,155.9,336.8,160.5,336.8z M124.2,361.1c28.9,0,57.4,0,86,0
		c0-3.9,0-7.6,0-11.4c-28.7,0-57.3,0-86,0C124.2,353.5,124.2,357.2,124.2,361.1z M124.2,385.6c28.9,0,57.4,0,86,0
		c0-3.9,0-7.5,0-11.4c-28.7,0-57.3,0-86,0C124.2,378,124.2,381.7,124.2,385.6z M210.4,399c-28.8,0-57.5,0-86.5,0c0,2.5,0,4.9,0,7.3
		c0,4.5,0,4.5,4.5,4.5c23,0,46.1,0,69.1,0c3.3,0,6.5-0.1,9.8,0c2.2,0,3.2-0.9,3.1-3.1C210.3,404.9,210.4,402.1,210.4,399z
		 M167.2,169.4c-6.4,12.3-12.4,24-18.5,35.9c6,4,11.7,7.8,17.5,11.6c0.5,0.3,1.5,0.3,2,0c5.8-3.8,11.5-7.6,17.5-11.6
		C179.6,193.5,173.6,181.8,167.2,169.4z"/>
</g>
<g>
	<path class="st4" d="M244.1,416.3l26.4-69.3h17l26.8,69.3h-16.9l-5.6-14.7h-26.9l-4.8,14.7H244.1z M288.2,389.9l-7.8-22.4
		c-0.2-0.7-0.5-1.8-0.9-3.4c-0.3-1.6-0.7-3.6-1.1-5.9c-0.4,2.2-0.8,4.3-1.2,6c-0.4,1.8-0.7,3-0.9,3.6l-7.5,22.1L288.2,389.9
		L288.2,389.9z"/>
	<path class="st4" d="M321.5,416.3V347h15.4l30.7,40.4c0.9,1.1,1.9,2.7,2.9,4.8c1.1,2.1,2.2,4.5,3.3,7.3c-0.3-2.1-0.6-4.1-0.8-6.1
		c-0.2-2-0.2-4.5-0.2-7.6V347H387v69.3h-14.5L341,375.2c-0.9-1.1-1.8-2.7-2.9-4.8c-1-2.1-2.1-4.5-3.3-7.4c0.3,2,0.6,4,0.8,6
		c0.2,2,0.2,4.6,0.2,7.7v39.6L321.5,416.3L321.5,416.3z"/>
	<path class="st4" d="M401.6,399.1v-11.9h26.5v11.9H401.6z"/>
	<path class="st4" d="M442.8,416.3V347h18.9c7.5,0,13.3,0.5,17.6,1.6c4.3,1,8.1,2.8,11.3,5.2c4.2,3.1,7.4,7.1,9.5,11.8
		c2.2,4.8,3.2,10.2,3.2,16.2c0,6.2-1.1,11.6-3.3,16.4c-2.2,4.8-5.4,8.7-9.7,11.8c-3.2,2.3-6.7,3.9-10.5,4.9c-3.9,1-9.5,1.5-17,1.5
		h-5.3h-14.7V416.3z M457.7,403.8h8.2c7.8,0,13.4-1.8,17-5.3s5.3-9.1,5.3-16.8c0-7.6-1.8-13.2-5.3-16.8c-3.6-3.6-9.2-5.3-17-5.3
		h-8.2V403.8z"/>
	<path class="st4" d="M515.9,416.3V347h40.8v12.5h-26v14.3h26v12.6h-26v17.4h26v12.6h-40.8V416.3z"/>
	<path class="st4" d="M566.8,407.5l8.2-9.3c1,2.6,2.7,4.6,5,6c2.3,1.5,4.9,2.2,7.8,2.2c3.5,0,6.2-0.8,8.2-2.5c2-1.6,3-3.9,3-6.6
		c0-3.3-3.4-6.6-10.1-9.8c-2.2-1-3.9-1.9-5.2-2.6c-6.1-3.2-10.3-6.2-12.6-9.3c-2.3-3-3.5-6.6-3.5-10.8c0-5.7,2.3-10.4,6.8-14.1
		s10.4-5.5,17.6-5.5c4.2,0,7.8,0.7,10.9,2.2c3,1.5,5.7,3.8,8.1,6.9l-8.8,8.4c-1-2-2.4-3.5-4.1-4.5c-1.7-1-3.8-1.5-6.2-1.5
		c-2.9,0-5.3,0.7-7.1,2.2s-2.7,3.4-2.7,5.7c0,3.7,3.6,7,10.7,10c1.4,0.6,2.5,1.1,3.3,1.4c5.9,2.7,10.2,5.7,13,9.1s4.2,7.2,4.2,11.6
		c0,6.5-2.2,11.7-6.7,15.6c-4.4,3.9-10.4,5.8-17.9,5.8c-5.3,0-9.9-0.9-13.6-2.7C571.5,413.5,568.6,410.9,566.8,407.5z"/>
	<path class="st4" d="M625.8,416.3V347h14.8v69.3H625.8z"/>
	<path class="st4" d="M690.9,379.7h31.6c0.1,0.4,0.1,0.9,0.1,1.3s0,1.2,0,2.2c0,10.4-3,18.8-8.9,25.2s-13.6,9.7-23,9.7
		c-10.8,0-19.6-3.4-26.6-10.3s-10.5-15.6-10.5-26.2c0-10.5,3.5-19.2,10.5-26s15.9-10.3,26.6-10.3c5.7,0,10.8,1.2,15.5,3.6
		s8.9,5.9,12.6,10.6l-10,7.4c-2.5-3.1-5.1-5.3-7.9-6.7c-2.7-1.4-5.9-2.1-9.5-2.1c-6.9,0-12.3,2.1-16.4,6.4c-4.1,4.3-6.2,10-6.2,17.1
		c0,7,2.1,12.7,6.2,17c4.1,4.3,9.5,6.5,16.1,6.5c4.9,0,8.8-1.1,11.8-3.4s4.5-5.3,4.5-9v-0.8h-16.7v-12.2H690.9z"/>
	<path class="st4" d="M734.4,416.3V347h15.4l30.7,40.4c0.9,1.1,1.9,2.7,2.9,4.8c1.1,2.1,2.2,4.5,3.3,7.3c-0.3-2.1-0.6-4.1-0.8-6.1
		s-0.2-4.5-0.2-7.6V347h14.2v69.3h-14.5l-31.5-41.1c-0.9-1.1-1.8-2.7-2.9-4.8c-1-2.1-2.1-4.5-3.3-7.4c0.3,2,0.6,4,0.8,6
		s0.2,4.6,0.2,7.7v39.6L734.4,416.3L734.4,416.3z"/>
</g>
</svg>
